<svg width="33" height="35" viewBox="0 0 33 35" fill="none" xmlns="http://www.w3.org/2000/svg">
<path d="M15.125 5.83334H5.5C4.77065 5.83334 4.07118 6.14063 3.55546 6.68761C3.03973 7.23459 2.75 7.97646 2.75 8.75V29.1667C2.75 29.9402 3.03973 30.6821 3.55546 31.2291C4.07118 31.776 4.77065 32.0833 5.5 32.0833H24.75C25.4793 32.0833 26.1788 31.776 26.6945 31.2291C27.2103 30.6821 27.5 29.9402 27.5 29.1667V18.9583M25.4375 3.64584C25.9845 3.06568 26.7264 2.73975 27.5 2.73975C28.2736 2.73975 29.0155 3.06568 29.5625 3.64584C30.1095 4.226 30.4168 5.01287 30.4168 5.83334C30.4168 6.65381 30.1095 7.44068 29.5625 8.02084L16.5 21.875L11 23.3333L12.375 17.5L25.4375 3.64584Z" stroke="#C5DEFF" stroke-width="3" stroke-linecap="round" stroke-linejoin="round"/>
</svg>
